<?xml version="1.0" encoding="UTF-8"?>
<svg id="Layer_2" data-name="Layer 2" xmlns="http://www.w3.org/2000/svg" viewBox="0 0 64.83 64.14">
  <defs>
    <style>
      .cls-1 {
        fill: none;
      }

      .cls-2 {
        fill: #c6c6c6;
      }

      .cls-3 {
        fill: #fff;
      }

      .cls-4 {
        fill: #de1783;
      }
    </style>
  </defs>
  <g id="Layer_1-2" data-name="Layer 1">
    <g>
      <path class="cls-3" d="M12.38,59.03c.23.09.5.17.8.24-.3-.08-.57-.16-.8-.24Z"/>
      <path class="cls-3" d="M64.83,17.33l-2.88-2c-.13-.1-13.59-9.47-18.69-13.7l-1.96-1.63-2.3,1.09c-.13.06-12.78,6.07-26.85,13.45l-3.22,1.69,1.38,3.36c.03.08,3.18,7.96,2.83,15.73-.19-.15-.4-.32-.64-.52l-1.09-.89c-1.76-1.42-3.44-1.72-4.54-1.72-2.99,0-6.42,2.51-6.73,6.58C0,40.65-.24,45.29.63,47.81c.6,1.73,2.64,6.92,4.87,10.46l.06.11c.86,1.4,1.94,2.87,4.88,4.18,2.44,1.09,7.6,1.58,11.64,1.58,2.35,0,4.48-.15,6.31-.45.5-.09.94-.17,1.34-.28h.03l.09-.02.08-.02c.34-.08.66-.17.98-.27.11-.02.22-.06.34-.1.1-.03.21-.07.31-.1h.98l.62-.62s.09-.05.14-.07c.14-.05.25-.11.33-.15.25-.11.52-.25.81-.41.14-.07.26-.14.37-.21.25-.14.47-.27.63-.38.06-.04.12-.08.19-.12l.03-.02.04-.03c.35-.22.67-.46.96-.7.36-.27.66-.55.89-.76.53-.5,1.03-1.06,1.46-1.67.18-.24.35-.48.49-.73.36-.58.65-1.21.87-1.86l.04-.09v-.05c.04-.1.08-.21.11-.34.06-.21.11-.4.14-.58l19.15-13.14,1.96-1.34-.24-2.36c-.31-3.16-.62-12.35,1.69-16.82l1.61-3.12ZM39.78,38.42c0,.38-.3.71-.68.73-1.61.1-3.24.11-4.85.02.49,1.61.92,3.28,1.28,4.88.03.13.06.26.09.39.13.61.26,1.22.37,1.8.03.17.06.33.1.5.41,2.15.66,4,.73,5.16.02.31.02.57.01.77-.01.19-.03.38-.07.56-.03.15-.06.29-.11.43-.01.08-.04.15-.06.22-.13.38-.31.76-.55,1.13-.06.12-.14.24-.23.35-.28.4-.61.79-1,1.15-.2.19-.41.38-.64.55-.2.17-.42.33-.65.48-.08.05-.15.1-.23.15-.17.11-.35.22-.53.31-.07.05-.13.09-.2.12-.22.13-.45.24-.69.35-.04.02-.07.04-.11.05-.28.13-.57.25-.87.37t-.02,0c-.3.12-.61.23-.94.33-.02.01-.04.02-.06.02-.29.09-.59.17-.91.25-.05.01-.09.02-.14.03-.35.09-.72.16-1.09.22-4.72.78-11.45.32-14.55-.47-.3-.07-.57-.15-.8-.24-.11-.04-.22-.08-.31-.12-2.18-.97-2.61-1.83-3.19-2.77-1.96-3.11-3.9-8-4.47-9.63-.56-1.63-.42-5.6-.28-7.44.05-.66.35-1.38.83-1.93.06-.07.12-.14.19-.2.13-.14.27-.25.42-.35.15-.1.31-.18.48-.25.79-.3,1.77-.19,2.83.67,3.71,3.02,2.97,2.41,3.68,3.05.71.64,1.32,1.08,2.53.86,1.22-.21,3.34-.83,4.2-1.18.06-.02.11-.05.17-.09h.01s.07-.06.11-.1c.04-.03.09-.07.13-.12h.01c.06-.09.13-.17.2-.26.08-.11.16-.24.23-.38.11-.19.2-.41.28-.63.09-.26.16-.53.2-.8.16-1.09,1.53-5.69,2.05-6.74.53-1.05,3.24-4.37,7.3-.38,1.17,1.14,2.24,3.23,3.17,5.69v-2.19c0-.39.3-.71.68-.74,1.75-.1,3.52-.1,5.27,0,.38.03.68.35.68.74v4.68ZM46.14,22.49c0,2.25-1.06,3.25-3.08,4.03l-1.64.65c-1.09.45-1.71.65-1.71,2.6,0,.39-.3.71-.69.73-.41.03-.82.05-1.25.06-.86.03-1.74.03-2.6,0-.43-.02-.85-.04-1.26-.06-.39-.02-.69-.34-.69-.73v-.82c0-3.56,1.36-4.27,3.07-4.96l1.61-.65c.92-.37,1.75-.75,1.75-1.67v-.34c0-1.44-1.58-1.44-3.42-1.44-1.53,0-3.11.1-4.86.31-.42.05-.79-.26-.82-.68-.08-1.19-.08-2.6.01-3.77.03-.34.3-.62.64-.66,2.21-.32,3.9-.43,5.09-.43,6.06,0,9.85,1.43,9.85,5.5v2.33Z"/>
      <path class="cls-2" d="M12.38,59.03c.23.09.5.17.8.24-.3-.08-.57-.16-.8-.24ZM34.25,39.17c-.34-1.12-.71-2.21-1.1-3.24-.93-2.46-2-4.55-3.17-5.69-4.06-3.99-6.77-.67-7.3.38-.52,1.05-1.89,5.65-2.05,6.74-.04.27-.11.54-.2.8-.08.22-.17.44-.28.63.18-.28.32-.6.4-.94.03-.13.06-.25.08-.38.04-.27.15-.76.32-1.36.47-1.81,1.34-4.59,1.73-5.38.53-1.06,3.24-4.37,7.31-.38,1.16,1.14,2.23,3.22,3.16,5.67.38,1,.73,2.06,1.06,3.15h.01c.28.95.55,1.92.8,2.89.18.66.35,1.34.51,1.99-.36-1.6-.79-3.27-1.28-4.88Z"/>
      <path class="cls-1" d="M36.82,51.9c-.07-1.16-.32-3.01-.73-5.16-.04-.17-.07-.33-.1-.5-.11-.58-.24-1.19-.37-1.8-.03-.13-.06-.26-.09-.39-.16-.65-.33-1.33-.51-1.99-.25-.97-.52-1.94-.8-2.89h-.01c-.33-1.09-.68-2.15-1.06-3.15-.93-2.45-2-4.53-3.16-5.67-4.07-3.99-6.78-.68-7.31.38-.39.79-1.26,3.57-1.73,5.38-.17.6-.28,1.09-.32,1.36-.02.13-.05.25-.08.38-.08.34-.22.66-.4.94-.07.14-.15.27-.23.38-.07.09-.14.17-.2.25h-.01c-.04.06-.09.1-.13.13-.04.04-.08.07-.11.09h-.01c-.06.05-.11.08-.17.1-.86.35-2.98.97-4.2,1.18-1.21.22-1.82-.22-2.53-.86-.71-.64.03-.03-3.68-3.05-1.06-.86-2.04-.97-2.83-.67-.17.07-.33.15-.48.25-.15.1-.29.21-.42.35-.07.06-.13.13-.19.2-.48.55-.78,1.27-.83,1.93-.14,1.84-.28,5.81.28,7.44.57,1.63,2.51,6.52,4.47,9.63.58.94,1.01,1.8,3.19,2.77.09.04.2.08.31.12.23.08.5.16.8.24,3.1.79,9.83,1.25,14.55.47.37-.06.74-.13,1.09-.22.05-.01.09-.02.14-.03.32-.08.62-.16.91-.25.02,0,.04-.01.06-.02.33-.1.64-.21.94-.33t.02,0c.3-.12.59-.24.87-.37.04-.01.07-.03.11-.05.24-.11.47-.22.69-.35.07-.03.13-.07.2-.12.18-.09.36-.2.53-.31.08-.05.15-.1.23-.15.23-.15.45-.31.65-.48.23-.17.44-.36.64-.55.39-.36.72-.75,1-1.15.09-.11.17-.23.23-.35.24-.37.42-.75.55-1.13.02-.07.05-.14.06-.22.05-.14.08-.28.11-.43.04-.18.06-.37.07-.56.01-.2.01-.46-.01-.77ZM13.29,53.52h-4.78c-.79,0-1.49-.64-1.57-1.43-.01-.05-.01-.11-.01-.16,0-.71.55-1.26,1.28-1.26h4.78c.79,0,1.49.64,1.57,1.42.01.06.01.11.01.16,0,.72-.55,1.27-1.28,1.27ZM26.41,56.22c-1,.1-1.95-.07-2.81-.46-.52-.24-1-.56-1.45-.96-1.02-.93-1.81-2.26-2.22-3.9-.12-.47-.21-.96-.26-1.47-.45-4.36,1.69-7.89,4.8-7.89.27,0,.53.02.79.06.9.12,1.76.48,2.51,1.07,1.56,1.23,2.65,3.49,2.65,6.88,0,3.97-1.58,6.31-4.01,6.67Z"/>
      <path class="cls-3" d="M14.57,52.25c0,.72-.55,1.27-1.28,1.27h-4.78c-.79,0-1.49-.64-1.57-1.43-.01-.05-.01-.11-.01-.16,0-.71.55-1.26,1.28-1.26h4.78c.79,0,1.49.64,1.57,1.42,0,.06,0,.11,0,.16Z"/>
      <path class="cls-3" d="M27.77,42.67c-.75-.59-1.61-.95-2.51-1.07-.26-.04-.52-.06-.79-.06-3.11,0-5.25,3.53-4.8,7.89.05.51.14,1,.26,1.47.41,1.64,1.2,2.97,2.22,3.9.45.4.93.72,1.45.96.86.39,1.81.56,2.81.46,2.43-.36,4.01-2.7,4.01-6.67,0-3.39-1.09-5.65-2.65-6.88ZM27.1,54.48c-.42.35-.85.5-1.33.46-.75-.05-1.56-.57-2.24-1.4-.83-1.04-1.35-2.45-1.42-3.87-.07-1.62.46-3.11,1.38-3.88.42-.35.85-.5,1.33-.47.75.06,1.56.57,2.24,1.41.83,1.03,1.11,2.51,1.18,3.93.07,1.63-.22,3.04-1.14,3.82Z"/>
      <path class="cls-3" d="M12.38,59.03c.23.09.5.17.8.24-.3-.08-.57-.16-.8-.24ZM34.25,39.17c-.34-1.12-.71-2.21-1.1-3.24-.93-2.46-2-4.55-3.17-5.69-4.06-3.99-6.77-.67-7.3.38-.52,1.05-1.89,5.65-2.05,6.74-.04.27-.11.54-.2.8-.08.22-.17.44-.28.63.18-.28.32-.6.4-.94.03-.13.06-.25.08-.38.04-.27.15-.76.32-1.36.47-1.81,1.34-4.59,1.73-5.38.53-1.06,3.24-4.37,7.31-.38,1.16,1.14,2.23,3.22,3.16,5.67.38,1,.73,2.06,1.06,3.15h.01c.28.95.55,1.92.8,2.89.18.66.35,1.34.51,1.99-.36-1.6-.79-3.27-1.28-4.88Z"/>
      <path class="cls-4" d="M33.15,35.93v.09c.38,1,.73,2.06,1.06,3.15h.04c-.34-1.12-.71-2.21-1.1-3.24Z"/>
      <path class="cls-1" d="M27.1,54.48c-.42.35-.85.5-1.33.46-.75-.05-1.56-.57-2.24-1.4-.83-1.04-1.35-2.45-1.42-3.87-.07-1.62.46-3.11,1.38-3.88.42-.35.85-.5,1.33-.47.75.06,1.56.57,2.24,1.41.83,1.03,1.11,2.51,1.18,3.93.07,1.63-.22,3.04-1.14,3.82Z"/>
    </g>
  </g>
</svg>