<?xml version="1.0" encoding="UTF-8"?>
<svg id="Layer_2" data-name="Layer 2" xmlns="http://www.w3.org/2000/svg" viewBox="0 0 49.74 49.74">
  <defs>
    <style>
      .cls-1 {
        fill: #fff;
      }
    </style>
  </defs>
  <g id="Layer_1-2" data-name="Layer 1">
    <path class="cls-1" d="M49.74,23.67v-12.08c0-6.39-5.2-11.59-11.59-11.59h-12.08v8.92h-2.39V0h-12.09C5.2,0,0,5.2,0,11.59v12.08h8.93v2.39H0v12.09c0,6.39,5.2,11.59,11.59,11.59h12.09v-8.93h2.39v8.93h12.08c6.39,0,11.59-5.2,11.59-11.59v-12.09h-8.92v-2.39h8.92ZM7.13,11.59v7.58h-2.63v-7.58c0-3.91,3.18-7.09,7.09-7.09h7.59v2.62h-7.59c-2.46,0-4.46,2-4.46,4.47ZM19.18,45.24h-7.59c-3.91,0-7.09-3.18-7.09-7.09v-7.59h2.63v7.59c0,2.46,2,4.47,4.46,4.47h7.59v2.62ZM16.93,36.31c-1.93,0-3.5-1.57-3.5-3.5v-15.88c0-1.94,1.57-3.51,3.5-3.51h15.89c1.93,0,3.5,1.57,3.5,3.51v15.88c0,1.93-1.57,3.5-3.5,3.5h-15.89ZM42.62,38.15v-7.59h2.62v7.59c0,3.91-3.18,7.09-7.09,7.09h-7.58v-2.62h7.58c2.47,0,4.47-2.01,4.47-4.47ZM38.15,7.12h-7.58v-2.62h7.58c3.91,0,7.09,3.18,7.09,7.09v7.58h-2.62v-7.58c0-2.47-2-4.47-4.47-4.47ZM32.82,16.05h-15.89c-.48,0-.88.39-.88.88v15.88c0,.49.4.88.88.88h15.89c.48,0,.88-.39.88-.88v-15.88c0-.49-.4-.88-.88-.88ZM29.75,29.75h-9.76v-9.76h9.76v9.76Z"/>
  </g>
</svg>