<?xml version="1.0" encoding="UTF-8"?>
<svg id="Layer_2" data-name="Layer 2" xmlns="http://www.w3.org/2000/svg" viewBox="0 0 57.41 57.41">
  <defs>
    <style>
      .cls-1 {
        fill: #fff;
      }
    </style>
  </defs>
  <g id="Layer_1-2" data-name="Layer 1">
    <g>
      <path class="cls-1" d="M8.49,22.22h-2.99v-8.64c0-4.45,3.62-8.08,8.08-8.08h8.64v2.99h-8.64c-2.81,0-5.09,2.28-5.09,5.09v8.64ZM22.22,48.92h-8.64c-2.81,0-5.09-2.28-5.09-5.09v-8.64h-2.99v8.64c0,4.45,3.62,8.08,8.08,8.08h8.64v-2.99ZM51.91,43.84v-8.64h-2.99v8.64c0,2.81-2.28,5.09-5.09,5.09h-8.64v2.99h8.64c4.45,0,8.08-3.62,8.08-8.08ZM51.91,13.58c0-4.45-3.62-8.08-8.08-8.08h-8.64v2.99h8.64c2.81,0,5.09,2.28,5.09,5.09v8.64h2.99v-8.64ZM41.75,37.75v-18.1c0-2.2-1.79-3.99-3.99-3.99h-18.1c-2.2,0-3.99,1.79-3.99,3.99v18.1c0,2.2,1.79,3.99,3.99,3.99h18.1c2.2,0,3.99-1.79,3.99-3.99ZM37.75,18.65c.55,0,1,.45,1,1v18.1c0,.55-.45,1-1,1h-18.1c-.55,0-1-.45-1-1v-18.1c0-.55.45-1,1-1h18.1Z"/>
      <rect class="cls-1" x="23.15" y="23.15" width="11.12" height="11.12"/>
    </g>
  </g>
</svg>